<svg fill="#FFFFFF" xmlns="http://www.w3.org/2000/svg"  viewBox="0 0 16 16" width="128px" height="128px"><path d="M 5.417969 0 C 5.246094 0.00390625 5.089844 0.0976563 5.003906 0.246094 C 4.917969 0.390625 4.910156 0.574219 4.988281 0.726563 C 5.210938 1.164063 5.339844 1.640625 5.339844 2.152344 C 5.339844 3.925781 3.910156 5.355469 2.136719 5.355469 C 1.625 5.355469 1.148438 5.226563 0.710938 5.003906 C 0.515625 4.90625 0.285156 4.945313 0.132813 5.097656 C -0.0195313 5.25 -0.0585938 5.484375 0.0390625 5.675781 C 0.703125 6.992188 2.03125 7.910156 3.585938 7.984375 C 3.582031 7.992188 3.574219 7.996094 3.570313 8 L 6.035156 8 L 6.097656 7.570313 C 6.238281 6.570313 6.875 5.75 7.734375 5.320313 C 7.761719 5.191406 7.789063 5.082031 7.804688 5.023438 C 7.8125 5.007813 7.808594 4.992188 7.8125 4.976563 C 7.886719 4.726563 7.929688 4.464844 7.957031 4.195313 C 7.957031 4.1875 7.960938 4.179688 7.960938 4.171875 C 7.96875 4.046875 7.984375 3.925781 7.984375 3.796875 C 7.984375 2.15625 7.035156 0.742188 5.660156 0.0546875 C 5.585938 0.015625 5.5 -0.00390625 5.417969 0 Z M 13 0 L 13 1 L 12 1 L 12 2 L 13 2 L 13 3 L 14 3 L 14 2 L 15 2 L 15 1 L 14 1 L 14 0 Z M 9 1 L 9 2 L 10 2 L 10 1 Z M 6.28125 1.90625 C 6.695313 2.441406 6.984375 3.066406 6.984375 3.796875 C 6.984375 4.109375 6.941406 4.40625 6.859375 4.6875 C 6.164063 5.148438 5.621094 5.808594 5.320313 6.605469 C 4.867188 6.855469 4.34375 7 3.78125 7 C 3.054688 7 2.433594 6.707031 1.898438 6.296875 C 1.984375 6.300781 2.050781 6.355469 2.136719 6.355469 C 4.453125 6.355469 6.339844 4.46875 6.339844 2.152344 C 6.339844 2.0625 6.285156 1.996094 6.28125 1.90625 Z M 8.9375 3.117188 C 8.96875 3.339844 8.984375 3.570313 8.984375 3.796875 C 8.984375 3.921875 8.957031 4.039063 8.949219 4.15625 C 9.75 4.425781 10.417969 5.023438 10.761719 5.828125 L 10.941406 6.257813 L 11.378906 6.109375 C 11.605469 6.035156 11.808594 6 12 6 C 13.101563 6 14 6.898438 14 8 C 14 8.234375 13.953125 8.472656 13.859375 8.710938 L 13.71875 9.09375 L 14.0625 9.3125 C 14.648438 9.683594 15 10.3125 15 11 C 15 12.101563 14.101563 13 13 13 L 3 13 C 1.898438 13 1 12.101563 1 11 C 1 10.050781 1.675781 9.226563 2.601563 9.039063 L 2.976563 8.929688 C 2.441406 8.847656 1.929688 8.675781 1.457031 8.4375 C 0.578125 8.96875 0 9.925781 0 11 C 0 12.652344 1.347656 14 3 14 L 13 14 C 14.652344 14 16 12.652344 16 11 C 16 10.101563 15.601563 9.261719 14.914063 8.695313 C 14.972656 8.464844 15 8.230469 15 8 C 15 6.179688 13.390625 4.695313 11.492188 5.046875 C 10.945313 4.070313 10.015625 3.375 8.9375 3.117188 Z"/></svg>