<svg fill="#FFFFFF" xmlns="http://www.w3.org/2000/svg"  viewBox="0 0 16 16" width="128px" height="128px"><path d="M 13 13 L 3 13 C 1.347656 13 0 11.652344 0 10 C 0 8.707031 0.835938 7.566406 2.035156 7.160156 C 2.199219 6.039063 3.054688 5.183594 4.136719 5.027344 C 4.574219 3.273438 6.167969 2 8 2 C 9.464844 2 10.789063 2.792969 11.492188 4.050781 C 13.390625 3.695313 15 5.179688 15 7 C 15 7.230469 14.972656 7.464844 14.914063 7.695313 C 15.601563 8.265625 16 9.101563 16 10 C 16 11.652344 14.652344 13 13 13 Z M 4.523438 5.503906 L 4.449219 5.996094 C 3.671875 6 3 6.671875 3 7.5 L 3.011719 7.921875 L 2.601563 8.039063 C 1.675781 8.226563 1 9.050781 1 10 C 1 11.101563 1.898438 12 3 12 L 13 12 C 14.101563 12 15 11.101563 15 10 C 15 9.3125 14.648438 8.683594 14.0625 8.3125 L 13.714844 8.09375 L 13.863281 7.710938 C 13.953125 7.472656 14 7.234375 14 7 C 14 5.898438 13.101563 5 12 5 C 11.808594 5 11.605469 5.035156 11.378906 5.109375 L 10.941406 5.253906 L 10.761719 4.832031 C 10.292969 3.71875 9.207031 3 8 3 C 6.523438 3 5.253906 4.105469 5.046875 5.574219 L 4.984375 6.003906 L 4.550781 6.003906 Z"/></svg>