<svg fill="#FFFFFF" xmlns="http://www.w3.org/2000/svg"  viewBox="0 0 16 16" width="128px" height="128px"><path d="M 7 1 L 7 2 L 6 2 L 6 3 L 7 3 L 7 6 L 6 6 L 6 6.5 L 6 7 L 3 7 L 3 6 L 2 6 L 2 7 L 1 7 L 1 8 L 2 8 L 2 9 L 3 9 L 3 8 L 6 8 L 6 9 L 7 9 L 7 12 L 6 12 L 6 13 L 7 13 L 7 14 L 8 14 L 8 13 L 9 13 L 9 12 L 8 12 L 8 9 L 9 9 L 9 8 L 12 8 L 12 9 L 13 9 L 13 8 L 14 8 L 14 7 L 13 7 L 13 6 L 12 6 L 12 7 L 9 7 L 9 6 L 8 6 L 8 3 L 9 3 L 9 2 L 8 2 L 8 1 L 7 1 z M 9 6 L 11 6 L 11 5 L 10 5 L 10 4 L 9 4 L 9 6 z M 9 9 L 9 11 L 10 11 L 10 10 L 11 10 L 11 9 L 9 9 z M 6 9 L 4 9 L 4 10 L 5 10 L 5 11 L 6 11 L 6 9 z M 6 6 L 6 4 L 5 4 L 5 5 L 4 5 L 4 6 L 6 6 z M 3 3 L 3 4 L 4 4 L 4 3 L 3 3 z M 11 3 L 11 4 L 12 4 L 12 3 L 11 3 z M 7 7 L 8 7 L 8 8 L 7 8 L 7 7 z M 3 11 L 3 12 L 4 12 L 4 11 L 3 11 z M 11 11 L 11 12 L 12 12 L 12 11 L 11 11 z"/></svg>