<svg fill="#FFFFFF" xmlns="http://www.w3.org/2000/svg"  viewBox="0 0 16 16" width="128px" height="128px"><path d="M 2.5 2 C 2.320313 1.996094 2.152344 2.09375 2.0625 2.246094 C 1.96875 2.402344 1.96875 2.597656 2.0625 2.753906 C 2.152344 2.90625 2.320313 3.003906 2.5 3 L 3.5 3 C 3.679688 3.003906 3.847656 2.90625 3.9375 2.753906 C 4.03125 2.597656 4.03125 2.402344 3.9375 2.246094 C 3.847656 2.09375 3.679688 1.996094 3.5 2 Z M 5.5 2 C 5.320313 1.996094 5.152344 2.09375 5.0625 2.246094 C 4.96875 2.402344 4.96875 2.597656 5.0625 2.753906 C 5.152344 2.90625 5.320313 3.003906 5.5 3 L 6.5 3 C 6.679688 3.003906 6.847656 2.90625 6.9375 2.753906 C 7.03125 2.597656 7.03125 2.402344 6.9375 2.246094 C 6.847656 2.09375 6.679688 1.996094 6.5 2 Z M 8.5 2 C 8.320313 1.996094 8.152344 2.09375 8.0625 2.246094 C 7.96875 2.402344 7.96875 2.597656 8.0625 2.753906 C 8.152344 2.90625 8.320313 3.003906 8.5 3 L 9.5 3 C 9.679688 3.003906 9.847656 2.90625 9.9375 2.753906 C 10.03125 2.597656 10.03125 2.402344 9.9375 2.246094 C 9.847656 2.09375 9.679688 1.996094 9.5 2 Z M 11.5 2 C 11.320313 1.996094 11.152344 2.09375 11.0625 2.246094 C 10.96875 2.402344 10.96875 2.597656 11.0625 2.753906 C 11.152344 2.90625 11.320313 3.003906 11.5 3 L 12.5 3 C 12.679688 3.003906 12.847656 2.90625 12.9375 2.753906 C 13.03125 2.597656 13.03125 2.402344 12.9375 2.246094 C 12.847656 2.09375 12.679688 1.996094 12.5 2 Z M 3.5 4 C 3.320313 3.996094 3.152344 4.09375 3.0625 4.246094 C 2.96875 4.402344 2.96875 4.597656 3.0625 4.753906 C 3.152344 4.90625 3.320313 5.003906 3.5 5 L 4.5 5 C 4.679688 5.003906 4.847656 4.90625 4.9375 4.753906 C 5.03125 4.597656 5.03125 4.402344 4.9375 4.246094 C 4.847656 4.09375 4.679688 3.996094 4.5 4 Z M 6.5 4 C 6.320313 3.996094 6.152344 4.09375 6.0625 4.246094 C 5.96875 4.402344 5.96875 4.597656 6.0625 4.753906 C 6.152344 4.90625 6.320313 5.003906 6.5 5 L 7.5 5 C 7.679688 5.003906 7.847656 4.90625 7.9375 4.753906 C 8.03125 4.597656 8.03125 4.402344 7.9375 4.246094 C 7.847656 4.09375 7.679688 3.996094 7.5 4 Z M 9.5 4 C 9.320313 3.996094 9.152344 4.09375 9.0625 4.246094 C 8.96875 4.402344 8.96875 4.597656 9.0625 4.753906 C 9.152344 4.90625 9.320313 5.003906 9.5 5 L 10.5 5 C 10.679688 5.003906 10.847656 4.90625 10.9375 4.753906 C 11.03125 4.597656 11.03125 4.402344 10.9375 4.246094 C 10.847656 4.09375 10.679688 3.996094 10.5 4 Z M 12.5 4 C 12.320313 3.996094 12.152344 4.09375 12.0625 4.246094 C 11.96875 4.402344 11.96875 4.597656 12.0625 4.753906 C 12.152344 4.90625 12.320313 5.003906 12.5 5 L 13.5 5 C 13.679688 5.003906 13.847656 4.90625 13.9375 4.753906 C 14.03125 4.597656 14.03125 4.402344 13.9375 4.246094 C 13.847656 4.09375 13.679688 3.996094 13.5 4 Z M 2.5 6 C 2.320313 5.996094 2.152344 6.09375 2.0625 6.246094 C 1.96875 6.402344 1.96875 6.597656 2.0625 6.753906 C 2.152344 6.90625 2.320313 7.003906 2.5 7 L 3.5 7 C 3.679688 7.003906 3.847656 6.90625 3.9375 6.753906 C 4.03125 6.597656 4.03125 6.402344 3.9375 6.246094 C 3.847656 6.09375 3.679688 5.996094 3.5 6 Z M 5.5 6 C 5.320313 5.996094 5.152344 6.09375 5.0625 6.246094 C 4.96875 6.402344 4.96875 6.597656 5.0625 6.753906 C 5.152344 6.90625 5.320313 7.003906 5.5 7 L 6.5 7 C 6.679688 7.003906 6.847656 6.90625 6.9375 6.753906 C 7.03125 6.597656 7.03125 6.402344 6.9375 6.246094 C 6.847656 6.09375 6.679688 5.996094 6.5 6 Z M 8.5 6 C 8.320313 5.996094 8.152344 6.09375 8.0625 6.246094 C 7.96875 6.402344 7.96875 6.597656 8.0625 6.753906 C 8.152344 6.90625 8.320313 7.003906 8.5 7 L 9.5 7 C 9.679688 7.003906 9.847656 6.90625 9.9375 6.753906 C 10.03125 6.597656 10.03125 6.402344 9.9375 6.246094 C 9.847656 6.09375 9.679688 5.996094 9.5 6 Z M 11.5 6 C 11.320313 5.996094 11.152344 6.09375 11.0625 6.246094 C 10.96875 6.402344 10.96875 6.597656 11.0625 6.753906 C 11.152344 6.90625 11.320313 7.003906 11.5 7 L 12.5 7 C 12.679688 7.003906 12.847656 6.90625 12.9375 6.753906 C 13.03125 6.597656 13.03125 6.402344 12.9375 6.246094 C 12.847656 6.09375 12.679688 5.996094 12.5 6 Z M 3.5 8 C 3.320313 7.996094 3.152344 8.09375 3.0625 8.246094 C 2.96875 8.402344 2.96875 8.597656 3.0625 8.753906 C 3.152344 8.90625 3.320313 9.003906 3.5 9 L 4.5 9 C 4.679688 9.003906 4.847656 8.90625 4.9375 8.753906 C 5.03125 8.597656 5.03125 8.402344 4.9375 8.246094 C 4.847656 8.09375 4.679688 7.996094 4.5 8 Z M 6.5 8 C 6.320313 7.996094 6.152344 8.09375 6.0625 8.246094 C 5.96875 8.402344 5.96875 8.597656 6.0625 8.753906 C 6.152344 8.90625 6.320313 9.003906 6.5 9 L 7.5 9 C 7.679688 9.003906 7.847656 8.90625 7.9375 8.753906 C 8.03125 8.597656 8.03125 8.402344 7.9375 8.246094 C 7.847656 8.09375 7.679688 7.996094 7.5 8 Z M 9.5 8 C 9.320313 7.996094 9.152344 8.09375 9.0625 8.246094 C 8.96875 8.402344 8.96875 8.597656 9.0625 8.753906 C 9.152344 8.90625 9.320313 9.003906 9.5 9 L 10.5 9 C 10.679688 9.003906 10.847656 8.90625 10.9375 8.753906 C 11.03125 8.597656 11.03125 8.402344 10.9375 8.246094 C 10.847656 8.09375 10.679688 7.996094 10.5 8 Z M 12.5 8 C 12.320313 7.996094 12.152344 8.09375 12.0625 8.246094 C 11.96875 8.402344 11.96875 8.597656 12.0625 8.753906 C 12.152344 8.90625 12.320313 9.003906 12.5 9 L 13.5 9 C 13.679688 9.003906 13.847656 8.90625 13.9375 8.753906 C 14.03125 8.597656 14.03125 8.402344 13.9375 8.246094 C 13.847656 8.09375 13.679688 7.996094 13.5 8 Z M 2.5 10 C 2.320313 9.996094 2.152344 10.09375 2.0625 10.246094 C 1.96875 10.402344 1.96875 10.597656 2.0625 10.753906 C 2.152344 10.90625 2.320313 11.003906 2.5 11 L 3.5 11 C 3.679688 11.003906 3.847656 10.90625 3.9375 10.753906 C 4.03125 10.597656 4.03125 10.402344 3.9375 10.246094 C 3.847656 10.09375 3.679688 9.996094 3.5 10 Z M 5.5 10 C 5.320313 9.996094 5.152344 10.09375 5.0625 10.246094 C 4.96875 10.402344 4.96875 10.597656 5.0625 10.753906 C 5.152344 10.90625 5.320313 11.003906 5.5 11 L 6.5 11 C 6.679688 11.003906 6.847656 10.90625 6.9375 10.753906 C 7.03125 10.597656 7.03125 10.402344 6.9375 10.246094 C 6.847656 10.09375 6.679688 9.996094 6.5 10 Z M 8.5 10 C 8.320313 9.996094 8.152344 10.09375 8.0625 10.246094 C 7.96875 10.402344 7.96875 10.597656 8.0625 10.753906 C 8.152344 10.90625 8.320313 11.003906 8.5 11 L 9.5 11 C 9.679688 11.003906 9.847656 10.90625 9.9375 10.753906 C 10.03125 10.597656 10.03125 10.402344 9.9375 10.246094 C 9.847656 10.09375 9.679688 9.996094 9.5 10 Z M 11.5 10 C 11.320313 9.996094 11.152344 10.09375 11.0625 10.246094 C 10.96875 10.402344 10.96875 10.597656 11.0625 10.753906 C 11.152344 10.90625 11.320313 11.003906 11.5 11 L 12.5 11 C 12.679688 11.003906 12.847656 10.90625 12.9375 10.753906 C 13.03125 10.597656 13.03125 10.402344 12.9375 10.246094 C 12.847656 10.09375 12.679688 9.996094 12.5 10 Z M 3.5 12 C 3.320313 11.996094 3.152344 12.09375 3.0625 12.246094 C 2.96875 12.402344 2.96875 12.597656 3.0625 12.753906 C 3.152344 12.90625 3.320313 13.003906 3.5 13 L 4.5 13 C 4.679688 13.003906 4.847656 12.90625 4.9375 12.753906 C 5.03125 12.597656 5.03125 12.402344 4.9375 12.246094 C 4.847656 12.09375 4.679688 11.996094 4.5 12 Z M 6.5 12 C 6.320313 11.996094 6.152344 12.09375 6.0625 12.246094 C 5.96875 12.402344 5.96875 12.597656 6.0625 12.753906 C 6.152344 12.90625 6.320313 13.003906 6.5 13 L 7.5 13 C 7.679688 13.003906 7.847656 12.90625 7.9375 12.753906 C 8.03125 12.597656 8.03125 12.402344 7.9375 12.246094 C 7.847656 12.09375 7.679688 11.996094 7.5 12 Z M 9.5 12 C 9.320313 11.996094 9.152344 12.09375 9.0625 12.246094 C 8.96875 12.402344 8.96875 12.597656 9.0625 12.753906 C 9.152344 12.90625 9.320313 13.003906 9.5 13 L 10.5 13 C 10.679688 13.003906 10.847656 12.90625 10.9375 12.753906 C 11.03125 12.597656 11.03125 12.402344 10.9375 12.246094 C 10.847656 12.09375 10.679688 11.996094 10.5 12 Z M 12.5 12 C 12.320313 11.996094 12.152344 12.09375 12.0625 12.246094 C 11.96875 12.402344 11.96875 12.597656 12.0625 12.753906 C 12.152344 12.90625 12.320313 13.003906 12.5 13 L 13.5 13 C 13.679688 13.003906 13.847656 12.90625 13.9375 12.753906 C 14.03125 12.597656 14.03125 12.402344 13.9375 12.246094 C 13.847656 12.09375 13.679688 11.996094 13.5 12 Z"/></svg>