<svg fill="#FFFFFF" xmlns="http://www.w3.org/2000/svg"  viewBox="0 0 16 16" width="128px" height="128px"><path d="M 7.5078125 1 A 0.50005 0.50005 0 0 0 7.0351562 1.3144531 C 6.7223443 2.1007837 6.3050204 2.5785024 5.7480469 2.8222656 C 5.1910733 3.0660289 4.4358315 3.0896704 3.4023438 2.7792969 A 0.50005 0.50005 0 0 0 2.7773438 3.3925781 C 3.0423332 4.3401585 3.0053004 5.0642916 2.7558594 5.6386719 C 2.5064183 6.2130521 2.028461 6.6757439 1.2753906 7.0527344 A 0.50005 0.50005 0 0 0 1.2988281 7.9570312 C 2.1454581 8.3301462 2.5847724 8.7095942 2.8027344 9.2246094 C 3.0206963 9.7396245 3.0321416 10.489344 2.7714844 11.630859 A 0.50005 0.50005 0 0 0 3.4003906 12.220703 C 4.4267245 11.917713 5.1977112 11.938836 5.7617188 12.179688 C 6.3257262 12.420533 6.7397596 12.886356 7.03125 13.673828 A 0.50005 0.50005 0 0 0 7.9648438 13.685547 C 8.2776556 12.899216 8.6949796 12.421498 9.2519531 12.177734 C 9.8089267 11.933971 10.564168 11.910329 11.597656 12.220703 A 0.50005 0.50005 0 0 0 12.222656 11.607422 C 11.957668 10.659834 11.9947 9.9357084 12.244141 9.3613281 C 12.493582 8.7869479 12.971539 8.3242561 13.724609 7.9472656 A 0.50005 0.50005 0 0 0 13.701172 7.0429688 C 12.854542 6.6698537 12.415228 6.2904058 12.197266 5.7753906 C 11.979304 5.2603755 11.967858 4.5106559 12.228516 3.3691406 A 0.50005 0.50005 0 0 0 11.599609 2.7792969 C 10.573276 3.0822875 9.8022887 3.0611584 9.2382812 2.8203125 C 8.6742739 2.5794666 8.2602404 2.1136445 7.96875 1.3261719 A 0.50005 0.50005 0 0 0 7.5078125 1 z M 7.4941406 2.4804688 C 7.8463292 3.0287575 8.2702572 3.494504 8.8457031 3.7402344 C 9.504957 4.021753 10.300217 4.0102629 11.160156 3.8554688 C 11.024133 4.7445236 11.006722 5.5265715 11.277344 6.1660156 C 11.522779 6.745947 12.008093 7.1652261 12.587891 7.5292969 C 12.04497 7.924485 11.582481 8.3791468 11.328125 8.9648438 C 11.053456 9.5973155 11.040116 10.344588 11.158203 11.142578 C 10.296652 10.985848 9.5025858 10.975939 8.8496094 11.261719 C 8.2791832 11.51137 7.8603092 11.977243 7.5058594 12.519531 C 7.1536708 11.971242 6.7297428 11.505496 6.1542969 11.259766 C 5.495043 10.978247 4.6997832 10.989737 3.8398438 11.144531 C 3.9758673 10.255476 3.9932784 9.4734285 3.7226562 8.8339844 C 3.4772209 8.254053 2.9919072 7.8347739 2.4121094 7.4707031 C 2.9550297 7.075515 3.4175194 6.6208531 3.671875 6.0351562 C 3.946544 5.4026844 3.9598839 4.6554118 3.8417969 3.8574219 C 4.7033478 4.014152 5.4974142 4.0240608 6.1503906 3.7382812 C 6.7208168 3.4886305 7.1396908 3.0227572 7.4941406 2.4804688 z M 7.5 4 C 5.5729257 4 4 5.5729257 4 7.5 C 4 9.4270743 5.5729257 11 7.5 11 C 9.4270743 11 11 9.4270743 11 7.5 C 11 5.5729257 9.4270743 4 7.5 4 z M 7.5 5 C 8.8866342 5 10 6.1133658 10 7.5 C 10 8.8866342 8.8866342 10 7.5 10 C 6.1133658 10 5 8.8866342 5 7.5 C 5 6.1133658 6.1133658 5 7.5 5 z"/></svg>