<svg fill="#FFFFFF" xmlns="http://www.w3.org/2000/svg"  viewBox="0 0 16 16" width="128px" height="128px"><path d="M 8 2 C 6.167969 2 4.574219 3.273438 4.132813 5.023438 C 3.054688 5.183594 2.199219 6.042969 2.03125 7.160156 C 0.835938 7.566406 0 8.707031 0 10 C 0 11.652344 1.347656 13 3 13 L 5.882813 13 L 6.105469 12.550781 L 6.382813 12 L 3 12 C 1.898438 12 1 11.101563 1 10 C 1 9.050781 1.675781 8.226563 2.601563 8.039063 L 3.011719 7.921875 L 3 7.5 C 3 6.671875 3.671875 6 4.449219 5.996094 L 4.984375 6.007813 L 5.046875 5.574219 C 5.253906 4.105469 6.523438 3 8 3 C 9.207031 3 10.292969 3.71875 10.765625 4.828125 L 10.941406 5.257813 L 11.378906 5.109375 C 11.605469 5.035156 11.808594 5 12 5 C 13.101563 5 14 5.898438 14 7 C 14 7.234375 13.953125 7.472656 13.859375 7.710938 L 13.75 8 L 15.207031 8 C 15.113281 7.894531 15.023438 7.785156 14.914063 7.695313 C 14.972656 7.464844 15 7.230469 15 7 C 15 5.179688 13.390625 3.695313 11.492188 4.046875 C 10.789063 2.792969 9.464844 2 8 2 Z M 9 9 L 7 13 L 9 13 L 8 15 L 9 15 L 11 12 L 9.25 12 L 11 9 Z M 14 9 L 12 13 L 14 13 L 13 15 L 14 15 L 16 12 L 14.25 12 L 16 9 Z"/></svg>