<svg fill="#FFFFFF" xmlns="http://www.w3.org/2000/svg"  viewBox="0 0 16 16" width="128px" height="128px"><path d="M 7.5 1 C 3.917969 1 1 3.917969 1 7.5 C 1 11.082031 3.917969 14 7.5 14 C 11.082031 14 14 11.082031 14 7.5 C 14 3.917969 11.082031 1 7.5 1 Z M 5.75 2.289063 C 7.136719 2.613281 8.324219 3.449219 9.085938 4.601563 C 9.242188 4.246094 9.589844 4 10 4 C 10.550781 4 11 4.449219 11 5 C 11 5.550781 10.550781 6 10 6 C 9.898438 6 9.804688 5.96875 9.710938 5.941406 C 9.886719 6.472656 10 7.035156 10 7.625 C 10 10.0625 8.410156 12.125 6.210938 12.84375 C 3.792969 12.265625 2 10.097656 2 7.5 C 2 5.070313 3.570313 3.015625 5.75 2.289063 Z M 4.5 5 C 4.222656 5 4 5.222656 4 5.5 C 4 5.777344 4.222656 6 4.5 6 C 4.777344 6 5 5.777344 5 5.5 C 5 5.222656 4.777344 5 4.5 5 Z M 5 8 C 4.449219 8 4 8.449219 4 9 C 4 9.550781 4.449219 10 5 10 C 5.550781 10 6 9.550781 6 9 C 6 8.449219 5.550781 8 5 8 Z M 11.5 8 C 11.777344 8 12 8.222656 12 8.5 C 12 8.777344 11.777344 9 11.5 9 C 11.222656 9 11 8.777344 11 8.5 C 11 8.222656 11.222656 8 11.5 8 Z"/></svg>