<svg fill="#FFFFFF" xmlns="http://www.w3.org/2000/svg"  viewBox="0 0 16 16" width="128px" height="128px"><path d="M 7 1 L 7 3 L 5 3 L 7.5 5.5 L 10 3 L 8 3 L 8 1 Z M 7 7 L 7 10.050781 C 6.410156 10.136719 5.871094 10.371094 5.417969 10.710938 L 3.257813 8.550781 L 2.550781 9.257813 L 4.710938 11.417969 C 4.371094 11.871094 4.136719 12.410156 4.050781 13 L 1 13 L 1 14 L 14 14 L 14 13 L 10.949219 13 C 10.863281 12.410156 10.628906 11.871094 10.289063 11.417969 L 12.449219 9.257813 L 11.742188 8.550781 L 9.582031 10.710938 C 9.128906 10.371094 8.589844 10.136719 8 10.050781 L 8 7 Z M 7.5 11 C 8.714844 11 9.71875 11.855469 9.949219 13 L 5.050781 13 C 5.28125 11.855469 6.285156 11 7.5 11 Z"/></svg>